<?xml version="1.0" encoding="UTF-8"?><svg id="Layer_1" xmlns="http://www.w3.org/2000/svg" viewBox="0 0 279.41 201.83"><defs><style>.cls-1{fill:none;}.cls-2{fill:#6f7177;font-family:GothamNarrow-Bold, 'Gotham Narrow';font-size:21.65px;font-weight:700;}.cls-3{fill:#010000;}.cls-4{fill:#030303;}.cls-5{fill:#7f7f7f;}.cls-6{fill:#818285;}.cls-7{fill:#e51c24;}.cls-8{fill:#e51c25;}.cls-9{fill:#838487;}</style></defs><path class="cls-3" d="m275.35,91.37c-1.79-.04-3.58-.1-5.37-.12-2.52-.02-5.04-.04-7.55.02-.79.02-1.14-.31-1.41-.95-2.5-5.99-5.07-11.94-7.45-17.98-.62-1.58-1.44-1.91-3.01-1.9-10.79.07-21.58.05-32.37.02-.88,0-1.31.16-1.7,1.1-1.69,4.03-3.56,7.99-5.36,11.98-1.04,2.32-2.06,4.64-3.13,6.95-.15.32-.57.73-.87.73-4.27.05-8.54.03-13.01.03,1.23-2.86,2.4-5.56,3.57-8.26,0,0-.02.01-.02.01.08-.15.15-.3.23-.45.44-.88.92-1.74,1.32-2.63,1.74-3.91,3.45-7.83,5.17-11.74,0-.22.02-.45.03-.67l.03-.05c.26-.26.63-.48.78-.8,2.73-5.97,5.44-11.94,8.14-17.93,2.94-6.51,5.85-13.03,8.79-19.54,3.35-7.4,6.7-14.8,10.06-22.2,1.03-2.27,2.09-4.53,3.22-6.99,1.12,2.51,2.19,4.86,3.22,7.23,1.56,3.57,3.1,7.16,4.65,10.74,2.07,4.77,4.14,9.54,6.22,14.3,2.05,4.69,4.12,9.37,6.17,14.06,2.43,5.55,4.83,11.11,7.26,16.66,1.61,3.69,3.23,7.37,4.85,11.06,2.36,5.4,4.73,10.8,7.09,16.2.06.14.15.27.23.41.08.08.15.16.23.25v.48Zm-28.08-33.14c.02-.15.04-.31.06-.46-4.01-9.45-8.02-18.9-12.13-28.57-4.37,9.82-8.62,19.38-12.91,29.03h24.98Z"/><path class="cls-5" d="m275.35,109.13c-.08-.08-.15-.16-.23-.25.08,0,.15,0,.23,0v.24Z"/><path class="cls-6" d="m104.58,133.82c-8.15-3.92-16.37-7.7-24.43-11.79-16.55-8.41-32.59-17.68-47.52-28.77-1.08-.8-2.19-1.55-3.28-2.33-.33-.33-.64-.7-1-.99-5.68-4.58-11.14-9.4-15.9-14.97-.21-.24-.55-.38-.83-.56-.27-.47-.48-.98-.81-1.4-3.07-3.91-5.75-8.05-7.44-12.77-2.75-7.71-1.48-14.74,3.7-21.03,4.36-5.29,10.16-8.53,16.39-11.09,7.16-2.94,14.66-4.61,22.29-5.69,2.78-.4,5.59-.57,8.39-.77,2.97-.21,5.94-.37,8.91-.48,3.42-.13,6.84-.27,10.26-.22,3.77.05,7.55.23,11.31.47,3.74.24,7.49.55,11.22.96,3.49.38,6.97.92,10.45,1.4,2.95.41,5.9.82,8.86,1.24.42.06.84.17,1.25.46-2.52.24-5.05.45-7.56.72-2.56.27-5.11.59-7.67.89-2.8.33-5.61.59-8.4,1.01-5.4.82-10.79,1.77-16.19,2.61-7.84,1.23-15.55,3.04-23.15,5.34-6.08,1.83-12.05,3.97-17.34,7.59-1.18.81-2.3,1.74-3.31,2.74-2.89,2.87-3.75,6.41-2.99,10.32.42,2.17,1.12,4.28,1.7,6.41.1.38.13.8.32,1.12,1.86,3.26,3.73,6.53,5.66,9.76.46.77,1.14,1.4,1.72,2.09,1.7,2.05,3.3,4.18,5.11,6.12,7.65,8.2,16.32,15.22,25.39,21.78,11.94,8.63,24.49,16.3,37.38,23.42-.83,2.13-1.65,4.27-2.48,6.4Z"/><path class="cls-8" d="m204.44,67.45s-.03.05-.03.05c0,.22-.02.45-.03.67-1.72,3.92-3.43,7.83-5.17,11.74-.4.9-.88,1.76-1.32,2.63-.08.15-.15.3-.23.45,0,0,.02-.01.02-.01-.18.07-.4.08-.52.2-4.26,4.47-9.52,6.99-15.57,7.91-3.9.6-7.78.31-11.59-.73-8.44-2.3-13.91-7.83-16.93-15.86-.89-2.36-1.34-4.89-1.99-7.34.02-.41.04-.82.06-1.24,4.09-.94,8.18-1.88,12.39-2.85.35,1.78.63,3.57,1.06,5.33,1.31,5.47,4.59,9.22,10.16,10.39,7.63,1.61,14.99-2.44,16.62-10.75.88-4.49.41-8.93-3.1-12.36-1.54-1.51-3.36-2.87-5.29-3.83-4.56-2.25-9.32-4.08-13.88-6.33-4.86-2.41-9.12-5.63-11.89-10.47-1.4-2.44-2.14-5.06-2.53-7.87-.5-3.64.16-7.07,1.42-10.38,1.42-3.71,3.95-6.69,7.08-9.15,3.62-2.84,7.68-4.55,12.3-5.03,5.11-.52,10.09-.35,14.81,1.9,5.24,2.5,8.88,6.65,11.74,11.57.11.19-.08.79-.3.92-3.16,1.96-6.34,3.88-9.58,5.85-.82-1.23-1.58-2.42-2.4-3.58-2.29-3.22-5.41-4.65-9.38-4.7-3.38-.04-6.47.46-9.13,2.69-2.58,2.16-4.01,4.88-3.8,8.28.16,2.44,1.44,4.39,3.23,6,1.83,1.64,3.99,2.71,6.22,3.7,4.82,2.14,9.73,4.11,14.38,6.56,5.53,2.91,9.84,7.18,11.82,13.3.68,2.1.97,4.35,1.21,6.55.21,1.9.08,3.83.11,5.74Z"/><path d="m11.62,74.41c.28.19.62.32.83.56,4.76,5.56,10.21,10.38,15.9,14.97.36.29.67.66,1,.99-.25,3.57-.4,7.15-.77,10.71-.48,4.74.03,9.38.94,14.02,1.61,8.23,5.31,15.5,10.26,22.15,2.75,3.69,5.87,7.11,8.84,10.64.66.78,1.41,1.48,2.11,2.22-2.34,1.91-3.8,4.33-4.19,7.36-2.4-1.82-4.82-3.6-7.18-5.46-2.59-2.03-5.19-4.07-7.69-6.22-3.12-2.68-6.27-5.34-9.16-8.26-3.54-3.57-7.01-7.25-10.18-11.14-4.72-5.81-8.61-12.13-10.88-19.37-1.27-4.05-1.68-8.17-1.35-12.33.45-5.66,2.79-10.67,6.18-15.15,1.31-1.73,2.87-3.27,4.33-4.87.28-.31.66-.54.99-.81Z"/><path class="cls-7" d="m104.58,133.82c.83-2.13,1.65-4.27,2.48-6.4,2.25-2.97,5.06-5.13,8.77-5.94,7.97-1.75,16.19,3.12,17.59,11.67.43,2.61.08,5.11-.6,7.6-.81,1.4-1.62,2.81-2.43,4.21-2.21,2.31-4.76,4.01-7.92,4.78-7.58,1.85-14.98-2.83-17.18-9.73-.66-2.06-.61-4.12-.71-6.2Z"/><path class="cls-8" d="m46.55,158.03c.39-3.02,1.84-5.44,4.19-7.36,2.08-1.38,4.4-1.74,6.83-1.52,4.31.39,7.58,3.85,8.25,7.65.43,2.41-.08,4.56-.99,6.72-1.4,1.34-2.81,2.69-4.21,4.03-1.46.27-2.91.74-4.38.78-3.74.1-6.42-1.8-8.34-4.89-1.03-1.66-1.3-3.5-1.34-5.4Z"/><path class="cls-9" d="m130.38,144.96c.81-1.4,1.62-2.81,2.43-4.21,22.14,10.68,44.82,20.1,68.04,28.42-.57,1.03-1.23,1.14-2.16.83-9.02-3.09-18.06-6.1-27.07-9.24-6.54-2.28-13.05-4.63-19.52-7.08-5.74-2.17-11.42-4.49-17.12-6.77-1.55-.62-3.07-1.3-4.6-1.95Z"/><path class="cls-4" d="m60.62,167.55c1.4-1.34,2.81-2.69,4.21-4.03,1.47,1.11,2.92,2.23,4.41,3.32,4.61,3.37,9.16,6.81,13.85,10.05,5.07,3.49,10.23,6.86,15.44,10.12,5.34,3.34,10.8,6.52,16.22,9.73,2.38,1.41,4.8,2.75,7.2,4.13.09.05.12.19.18.29-.05.05-.09.1-.13.15-3.22-1.51-6.47-2.97-9.66-4.55-4.76-2.36-9.51-4.74-14.19-7.24-5.18-2.76-10.33-5.57-15.39-8.54-7.38-4.33-14.67-8.82-22-13.25-.06-.04-.1-.12-.14-.19Z"/><path class="cls-4" d="m122.61,201.4c.17.07.33.15.5.22-.03.07-.07.14-.1.21-.18-.09-.35-.18-.53-.28.04-.05.09-.1.13-.16Z"/><path class="cls-4" d="m122.48,201.56c-.16-.08-.32-.16-.48-.24.04-.05.08-.11.13-.15.16.08.32.16.48.24-.04.05-.08.1-.13.16Z"/><text class="cls-2" transform="translate(110.34 114.14)"><tspan x="0" y="0">A SURA Company</tspan></text><path class="cls-1" d="m138.39,52v6.14c.01-1.96.02-3.91.04-5.87,0-.07-.02-.15-.04-.27Z"/><path d="m126.5,50.66c-6,.11-11.99.3-17.98.47-1.98.06-3.96.12-5.94.24-3.62.22-7.24.47-10.85.71-2.48.16-4.96.32-7.43.48-1.14.08-2.28.11-3.42.25-3.56.45-7.11.94-10.67,1.42-3.49.48-7.02.81-10.47,1.48-5.37,1.05-10.72,2.21-16.01,3.58-4.13,1.07-8.15,2.53-12.22,3.82.1.38.13.8.32,1.12,1.86,3.26,3.73,6.53,5.66,9.76.46.77,1.14,1.4,1.72,2.09.25-.18.5-.36.75-.54,3.44-2.35,7.04-4.42,10.92-5.93,4.96-1.92,9.9-3.93,14.97-5.5,5.23-1.62,10.6-2.85,15.93-4.1,3.7-.87,7.46-1.51,11.19-2.22,3.01-.57,6.03-1.14,9.05-1.64,2.74-.45,5.49-.83,8.24-1.21,2.06-.28,4.13-.49,6.19-.75,3.68-.46,7.35-.96,11.03-1.4,1.83-.22,3.67-.34,5.51-.52,1.78-.17,3.56-.36,5.36-.54.02.1.03.18.05.24v-1.36c-4.03,0-7.96-.06-11.89.01Z"/><path d="m150.91,64.05c.04-1.18.21-2.36.21-3.54.01-18.81.01-37.63,0-56.44,0-.3-.04-.61-.06-.89h-12.69v29.81c.02.12.04.2.04.27-.02,1.96-.03,3.91-.04,5.87v1.71-1.71c-.05,7.81-.09,15.62-.24,23.42-.05,2.81-.38,5.65-.96,8.4-1.38,6.54-6.54,8.44-11.95,6.89-1.9-.54-3.65-1.62-5.6-2.52-1.99,3.57-4.04,7.25-6.15,11.04,1.4.67,2.75,1.35,4.12,1.97,5.07,2.31,10.39,2.89,15.8,1.73,5.28-1.13,9.58-3.93,12.72-8.43,2.97-4.25,4.14-9.04,4.55-14.1.03-.38.27-.75.42-1.12.02-.41.04-.82.06-1.24-.08-.37-.25-.75-.23-1.12Z"/></svg>